<svg xmlns="http://www.w3.org/2000/svg" xmlns:xlink="http://www.w3.org/1999/xlink" viewBox="0 0 4500 1323">
  <defs>
    <path id="armory-logo-a" d="M1553.83203,861.640625 C1618.28516,861.640625 1674.92578,836.41276 1723.75391,785.957031 L1723.75391,785.957031 L1723.75391,848.945312 L1825.31641,848.945312 L1825.31641,346.015625 L1723.75391,346.015625 L1723.75391,381.171875 C1674.92578,331.041667 1618.28516,305.976562 1553.83203,305.976562 C1477.00911,305.976562 1411.49805,333.076172 1357.29883,387.275391 C1303.09961,441.474609 1276,506.985677 1276,583.808594 C1276,660.63151 1303.09961,726.142578 1357.29883,780.341797 C1411.49805,834.541016 1477.00911,861.640625 1553.83203,861.640625 Z M1553.83203,757.636719 C1505.65495,757.636719 1464.55794,740.628255 1430.54102,706.611328 C1396.52409,672.594401 1379.51562,631.660156 1379.51562,583.808594 C1379.51562,535.63151 1396.52409,494.615885 1430.54102,460.761719 C1464.55794,426.907552 1505.65495,409.980469 1553.83203,409.980469 C1601.68359,409.980469 1642.69922,426.907552 1676.87891,460.761719 C1702.26953,486.477865 1717.89453,515.123698 1723.75391,546.699219 L1723.75391,546.699219 L1723.75391,620.917969 C1717.89453,652.49349 1702.26953,681.139323 1676.87891,706.855469 C1642.69922,740.709635 1601.68359,757.636719 1553.83203,757.636719 Z M2073.36328,848.457031 L2073.36328,590.15625 C2074.66536,545.234375 2091.75521,506.497396 2124.63281,473.945312 C2146.44271,452.135417 2175.73958,440.253906 2212.52344,438.300781 L2212.52344,438.300781 L2212.52344,333.320312 C2157.51042,335.924479 2111.1237,362.779948 2073.36328,413.886719 L2073.36328,413.886719 L2073.36328,346.015625 L1972.28906,346.015625 L1972.28906,848.457031 L2073.36328,848.457031 Z M2425.41406,848.457031 L2425.41406,518.378906 C2426.71615,475.084635 2432.57552,448.391927 2442.99219,438.300781 C2455.03646,426.582031 2469.35938,420.722656 2485.96094,420.722656 C2526.32552,420.722656 2546.50781,445.46224 2546.50781,494.941406 L2546.50781,494.941406 L2546.01953,848.457031 L2647.09375,848.457031 L2647.09375,556.464844 C2647.09375,489.407552 2653.11589,450.019531 2665.16016,438.300781 C2677.20443,426.582031 2691.52734,420.722656 2708.12891,420.722656 C2748.16797,420.722656 2768.1875,445.46224 2768.1875,494.941406 L2768.1875,494.941406 L2768.1875,848.457031 L2869.75,848.457031 L2869.75,448.554688 C2869.75,362.291667 2834.26823,319.160156 2763.30469,319.160156 C2691.36458,319.160156 2647.41927,347.154948 2631.46875,403.144531 C2624.63281,347.154948 2593.54557,319.160156 2538.20703,319.160156 C2482.54297,319.160156 2444.94531,343.736979 2425.41406,392.890625 L2425.41406,392.890625 L2425.41406,346.015625 L2324.33984,346.015625 L2324.33984,848.457031 L2425.41406,848.457031 Z M3265.25781,861.640625 C3342.08073,861.640625 3407.5918,834.459635 3461.79102,780.097656 C3515.99023,725.735677 3543.08984,660.143229 3543.08984,583.320312 C3543.08984,506.497396 3515.99023,440.904948 3461.79102,386.542969 C3407.5918,332.18099 3342.08073,305 3265.25781,305 C3188.76042,305 3123.33073,332.18099 3068.96875,386.542969 C3014.60677,440.904948 2987.42578,506.497396 2987.42578,583.320312 C2987.42578,660.143229 3014.60677,725.735677 3068.96875,780.097656 C3123.33073,834.459635 3188.76042,861.640625 3265.25781,861.640625 Z M3265.25781,757.148438 C3217.08073,757.148438 3175.98372,740.221354 3141.9668,706.367188 C3107.94987,672.513021 3090.94141,631.497396 3090.94141,583.320312 C3090.94141,535.46875 3107.94987,494.453125 3141.9668,460.273438 C3175.98372,426.09375 3217.08073,409.003906 3265.25781,409.003906 C3313.4349,409.003906 3354.5319,426.09375 3388.54883,460.273438 C3422.56576,494.453125 3439.57422,535.46875 3439.57422,583.320312 C3439.57422,631.497396 3422.56576,672.513021 3388.54883,706.367188 C3354.5319,740.221354 3313.4349,757.148438 3265.25781,757.148438 Z M3761.35156,848.457031 L3761.35156,590.15625 C3762.65365,545.234375 3779.74349,506.497396 3812.62109,473.945312 C3834.43099,452.135417 3863.72786,440.253906 3900.51172,438.300781 L3900.51172,438.300781 L3900.51172,333.320312 C3845.4987,335.924479 3799.11198,362.779948 3761.35156,413.886719 L3761.35156,413.886719 L3761.35156,346.015625 L3660.27734,346.015625 L3660.27734,848.457031 L3761.35156,848.457031 Z M4177.85547,1017.40234 L4499.63281,346.015625 L4386.35156,346.015625 L4258.91016,620.917969 L4131.46875,346.015625 L4017.69922,346.015625 L4204.71094,736.640625 L4070.92188,1017.40234 L4177.85547,1017.40234 Z"/>
  </defs>
  <g fill="none" fill-rule="evenodd">
    <g stroke="#494949" transform="translate(.982 .389)">
      <path fill="#494949" stroke-width="60" d="M552.134156,28.6843908 L552.134156,19.3644683 L557.044261,9.59502309 L561.866701,19.0187381 L561.866701,28.7194468 L559.364322,30 L554.751773,30 L552.134156,28.6843908 Z M557.078821,31.1695698 L545.212698,37.2418741 C531.225,44.3998785 519.472052,50.2270712 509.916163,54.7386921 C500.590178,59.1419655 491.139463,63.5446747 481.563341,67.9471495 C472.03757,72.3262 461.391376,77.1884372 449.623876,82.5343005 C443.607406,85.2676484 438.950159,87.3478806 435.600282,88.7964853 C433.768893,89.5884421 432.275409,90.2149015 431.046457,90.7023955 C430.2194,91.0304682 429.466059,91.3147105 428.707431,91.5773193 C428.132759,91.7762495 427.55783,91.9621759 426.933631,92.1437488 C426.233085,92.4195439 425.221104,92.8314792 423.937386,93.3654294 C420.615654,94.7470726 415.722406,96.8413625 409.303095,99.6300747 C395.695387,105.541599 381.161917,111.371882 365.698227,117.125278 C350.454877,122.795944 340.294991,126.493459 334.940609,128.312345 C329.678964,130.099546 324.172914,131.880711 318.423808,133.655971 C313.08187,135.306033 305.585841,137.691335 295.97022,140.801664 C285.725057,144.11638 273.656691,147.642988 259.732459,151.396953 C245.795862,155.154268 229.407093,159.130772 210.537602,163.337897 C191.636261,167.552121 176.343565,170.670038 164.565652,172.701866 C153.280818,174.649075 134.65346,177.803882 108.658643,182.17063 C82.5664994,186.553184 63.0951411,189.723023 50.1838753,191.688803 C42.4058985,192.873016 35.6750261,193.918248 30,194.822905 L30,196.180356 C30,212.34142 30.8630475,240.454882 32.5926262,280.25306 C34.3341146,320.337245 35.7014853,349.173318 36.6904696,366.692004 C37.6934704,384.458225 38.5714527,401.257996 39.3243462,417.091199 C40.054726,432.439884 41.6569836,455.524239 44.1282193,486.226337 C46.577214,516.652112 48.1925924,535.10517 48.8637667,540.534063 C49.479479,545.51033 51.7603116,557.742678 55.5858051,576.307501 C59.5528923,595.557419 62.6463555,610.208421 64.8561025,620.217144 C66.9956133,629.908291 70.7792013,645.070881 76.174685,665.540697 C81.5649886,685.990328 86.4453191,703.277954 90.801169,717.368932 C95.1869372,731.558411 99.5643836,744.895334 103.92973,757.372143 C108.299078,769.85358 111.671306,779.085828 113.985241,784.92563 C116.422792,791.076049 119.869345,799.557826 124.31305,810.339827 C126.585943,815.854035 128.29617,820.033932 129.453774,822.904831 C130.065068,824.420859 130.533937,825.600539 130.877432,826.489488 C131.103947,827.075696 131.292004,827.575911 131.466314,828.064641 C131.529055,828.240552 131.589813,828.414016 131.649998,828.590447 C131.863775,829.099692 132.166051,829.808349 132.548038,830.694303 C133.630004,833.203741 135.284005,836.98042 137.49631,841.992113 C141.838461,851.82465 145.183818,859.128906 147.466794,863.780615 C149.718854,868.370289 152.343656,873.354019 155.340664,878.723418 C158.531498,884.441024 163.358356,892.969481 169.80562,904.280374 C175.995506,915.139665 179.961412,921.949046 181.201869,923.893422 C182.959169,926.648762 186.387797,932.197102 191.60051,940.715627 C197.023165,949.572451 200.243799,954.948044 201.709532,957.633583 C201.905406,957.992645 202.483237,958.953728 203.355535,960.334414 C204.404582,961.994862 205.781341,964.10942 207.480365,966.666723 C211.191183,972.257597 213.895043,976.382222 215.637212,979.112948 C217.005522,981.257655 219.172189,984.467613 222.081913,988.64845 C225.286822,993.253348 227.869127,997.013216 229.846914,999.956135 C231.422414,1002.3011 233.386652,1005.05512 235.715209,1008.17641 C238.55662,1011.9793 240.836275,1015.12888 242.592006,1017.68744 C243.789591,1019.43197 245.314816,1021.52558 247.152688,1023.93924 C249.337952,1026.8084 251.767846,1030.03562 254.44493,1033.62401 C257.140603,1037.23739 259.71226,1040.7292 262.173804,1044.11878 C264.330013,1047.09272 266.478353,1049.946 268.62013,1052.68108 C270.791531,1055.4546 273.871331,1059.24933 277.826715,1064.02008 C281.926097,1068.96507 285.027928,1072.69872 287.12755,1075.21547 C288.687172,1077.08539 294.936387,1083.86253 305.020718,1094.56794 C315.579851,1105.7822 322.417201,1113.02234 325.475043,1116.22775 C328.256629,1119.14362 333.530065,1124.37776 341.129739,1131.75275 C348.63095,1139.03176 353.00481,1143.27657 354.262348,1144.49789 C354.265196,1144.50048 354.268122,1144.50314 354.271126,1144.50588 C354.424607,1144.64548 354.651821,1144.84932 354.943063,1145.1082 C355.603675,1145.69539 356.524322,1146.50415 357.69172,1147.52239 C360.099892,1149.62287 363.50282,1152.56667 367.887445,1156.34227 C376.38033,1163.65506 381.929755,1168.33748 384.091306,1170.03505 C387.228542,1172.50537 393.399396,1177.74774 403.151212,1186.2019 C412.325586,1194.15553 419.259473,1200.05885 423.863433,1203.8407 C428.750004,1207.84935 434.507839,1212.58625 441.137405,1218.05178 C447.595031,1223.37514 452.738732,1227.54496 456.549692,1230.54799 C460.300275,1233.50812 463.601322,1236.0384 466.437314,1238.12967 C469.000004,1240.01943 471.408874,1241.67478 473.654401,1243.09528 C476.17719,1244.69117 481.212057,1247.71644 488.560073,1252.0437 C496.243664,1256.5682 501.410008,1259.62559 504.125971,1261.25605 C507.03711,1263.00361 511.114267,1265.55605 516.446787,1268.96468 C521.405948,1272.13459 524.689844,1274.29941 526.961009,1275.95149 C527.34198,1276.16691 527.862871,1276.45306 528.505363,1276.79762 C530.582224,1277.9114 533.589174,1279.45431 537.471165,1281.39444 C545.611259,1285.46273 551.39425,1288.32869 554.761031,1289.96387 C554.774986,1289.97065 554.788912,1289.9774 554.802808,1289.98413 C556.814251,1289.12216 559.326056,1288.01547 562.277031,1286.68454 C569.016455,1283.65013 574.748993,1280.98439 579.478334,1278.68738 C581.724324,1277.59893 583.526355,1276.69893 584.850452,1276.00742 C585.406677,1275.71693 585.845012,1275.48068 586.148567,1275.31013 C586.172591,1275.29663 586.194172,1275.28445 586.213202,1275.27365 C587.555737,1274.4001 589.727881,1272.95514 592.692102,1270.96186 C596.54343,1268.3779 600.300564,1266.04509 603.974692,1263.96291 C606.384014,1262.59777 608.471866,1261.3254 610.226163,1260.16145 C613.197072,1258.19022 618.482952,1254.98372 626.562643,1250.22565 C633.911886,1245.89797 638.946834,1242.8728 641.469318,1241.27711 C643.714866,1239.8566 646.123656,1238.20131 648.686707,1236.31126 C651.373138,1234.3303 655.61956,1231.00013 661.278632,1226.42407 C667.194745,1221.63492 671.800658,1217.87789 675.076717,1215.16957 C678.627254,1212.23429 681.812283,1209.65861 684.645429,1207.43317 C686.823528,1205.72258 692.123951,1201.28102 700.148846,1194.42413 C708.50962,1187.2749 713.751659,1182.79261 715.847065,1181.00116 C717.887525,1179.25217 723.735022,1174.18082 733.271247,1165.88908 C743.306283,1157.15863 749.607324,1151.79295 752.771291,1149.31219 C753.299763,1148.897 754.770788,1147.60416 756.876932,1145.65619 C759.329837,1143.3875 762.486495,1140.38128 766.313523,1136.66691 C774.030095,1129.17238 783.028446,1120.08342 793.289708,1109.41531 C803.60108,1098.69504 812.533251,1089.19616 820.077497,1080.92998 C827.309735,1073.00608 832.031633,1067.63206 833.783974,1065.39483 C836.202207,1062.30743 839.113766,1058.62106 842.522352,1054.33083 C845.595977,1050.4622 848.421531,1046.73223 851.00302,1043.13815 C854.109051,1038.81609 857.343662,1034.50124 860.691465,1030.21274 C863.276406,1026.89584 865.130481,1024.33627 866.16915,1022.7082 C868.309385,1019.35357 871.026437,1015.54679 874.3592,1011.19045 C876.952757,1007.79403 879.692447,1004.02765 882.563432,999.908808 C885.787121,995.278557 888.641763,991.249085 891.135829,987.80988 C893.161902,985.016068 896.019741,980.796579 899.649703,975.219845 C903.58595,969.186557 906.518,964.733965 908.50108,961.780618 C909.937194,959.648026 913.771009,953.369751 919.569016,943.603339 C925.86842,932.992244 929.809092,926.451055 931.675285,923.525886 C932.929571,921.559901 937.638568,913.504571 945.183522,900.375059 C953.022686,886.733566 957.578441,878.798146 958.843913,876.580771 C959.468169,875.49414 963.213809,867.739251 968.918985,855.55023 C975.009941,842.548094 979.976462,831.500458 983.806757,822.442996 C987.743175,813.134573 991.052991,805.162692 993.731568,798.540138 C996.355602,792.052422 999.755177,783.211036 1003.91246,772.054067 C1008.0346,761.005436 1011.03775,752.613704 1012.88685,746.997765 C1014.9706,740.670576 1016.81344,735.302872 1018.42838,730.864895 C1019.69113,727.394623 1020.5919,724.67659 1021.11085,722.831233 C1021.89729,720.034073 1024.14835,712.261786 1027.92626,699.296341 C1031.55704,686.853546 1034.69109,675.272599 1037.33187,664.547494 C1040.05536,653.508499 1043.15348,640.644097 1046.62465,625.960079 C1050.0512,611.464287 1053.23344,597.092167 1056.16938,582.854098 C1059.02531,568.979387 1061.53507,554.243122 1063.69489,538.648598 C1065.85059,523.083298 1067.78685,504.177299 1069.48941,481.979479 C1071.21194,459.521329 1073.57223,419.745524 1076.55667,362.818494 C1079.53268,305.949675 1081.39085,259.624837 1082.13251,223.895058 L1082.73648,194.800366 C1082.05738,194.67027 1081.3641,194.53754 1080.65665,194.402176 C1071.82203,192.710965 1065.16991,191.443462 1060.70932,190.601356 C1058.50802,190.185778 1056.85111,189.875824 1055.75527,189.6745 C1055.47096,189.622265 1055.23101,189.578567 1055.04085,189.544309 C1054.89095,189.523832 1054.73551,189.501931 1054.56622,189.477619 C1054.16257,189.419649 1053.63862,189.341807 1052.97085,189.240853 C1051.72188,189.052033 1049.91631,188.774183 1047.54043,188.405273 C1042.83628,187.674844 1035.86243,186.582131 1026.61279,185.126203 C1008.18767,182.226859 996.602269,180.413422 991.921916,179.69597 C986.800563,178.911234 974.951137,176.831609 955.927037,173.385419 C936.85456,169.929928 925.71919,167.865604 921.848632,167.060777 C918.172586,166.29583 910.360286,164.583634 898.239263,161.887971 C885.844711,159.132038 873.088214,156.005767 859.967181,152.509441 C847.016066,149.05785 836.300004,146.086464 827.782129,143.582885 C819.307656,141.090971 812.324732,138.957077 806.797747,137.167854 C801.380186,135.414588 796.826902,133.899819 793.101664,132.610027 C789.595527,131.394223 781.231682,128.486202 767.994912,123.880683 C754.516462,119.191052 744.161034,115.469291 736.836972,112.678114 C729.396106,109.839638 719.075531,105.582167 705.75221,99.863327 C699.394631,97.1340648 694.547644,95.0841701 691.256431,93.7315402 C690.050523,93.2359332 689.086545,92.8476814 688.398004,92.5785589 C687.798691,92.3990073 687.199684,92.1965457 686.535062,91.962483 C685.94007,91.752942 685.382646,91.540528 684.784367,91.3020271 C683.985829,90.9836944 683.058526,90.5951841 681.934346,90.1113733 C679.96707,89.2647222 677.25584,88.0643759 673.754461,86.4911579 C666.922067,83.421269 656.96402,78.8785351 643.853702,72.8512092 C617.493384,60.7329274 602.204682,53.6470027 597.432365,51.331034 C592.771431,49.0693095 583.458452,44.4279211 569.35688,37.3404981 L557.078821,31.1695698 Z M424.384014,92.7797085 C423.780842,92.9024992 423.14026,93.0127743 422.434595,93.1106823 C423.185148,93.0065502 423.833404,92.8929879 424.426297,92.7686456 Z M14.1528168,197.565918 C14.0499736,197.588856 13.9502615,197.611434 13.8537053,197.633644 L13.8168845,197.563155 C13.8558443,197.548465 13.8958342,197.533241 13.9368871,197.517461 C14.646509,197.244697 15.4211328,196.903095 16.310568,196.438787 L14.1528168,197.565918 Z M16.310568,196.438787 C16.3148355,196.43656 16.3191056,196.434329 16.3233785,196.432096 L16.310568,196.438787 Z M133.022526,833.675759 C133.231819,834.961864 133.31502,836.368208 133.31502,838.483268 C133.31502,836.346354 133.224991,834.891987 133.010883,833.587588 Z M131.407772,828.005678 C131.406791,828.003211 131.405859,828.000878 131.404976,827.99867 C131.407404,828.004739 131.410305,828.011948 131.413662,828.020257 Z M354.193514,1144.43496 C354.192955,1144.43444 354.192398,1144.43393 354.191843,1144.43341 C354.193031,1144.43451 354.195378,1144.43668 354.198832,1144.43986 Z M701.034331,34.0566386 C701.002215,34.0521417 700.969886,34.0476459 700.937339,34.0431505 C700.969843,34.0476631 701.002171,34.0521584 701.034331,34.0566386 Z M1060.75887,129.859576 C1060.40692,129.850868 1059.98017,129.85039 1059.3526,129.85039 C1059.93113,129.85039 1060.37869,129.851897 1060.75887,129.859576 Z M491.502855,1324.34853 C491.478658,1324.32983 491.454515,1324.31112 491.430424,1324.2924 C491.461165,1324.31628 491.488477,1324.33737 491.512623,1324.35591 Z M74.8078243,847.851836 C74.220326,846.044914 73.8333353,844.753814 73.6009164,843.260083 C73.7958446,844.475989 74.1254402,845.61302 74.6264827,847.234128 C74.7565655,847.655007 74.8566346,847.94998 74.953157,848.220608 C74.9870885,848.315745 74.9645784,848.25587 74.9103355,848.115492 C74.8792978,848.035168 74.845111,847.947239 74.8078243,847.851836 Z M408.789288,34.9824844 C408.78791,34.9830033 408.786547,34.9835168 408.7852,34.984025 C408.788467,34.9827925 408.793312,34.9809399 408.799676,34.978485 Z"/>
      <path fill="#FFF" stroke-width="2" d="M559.861396,51.6717437 L564.370104,51.6717437 L583.79212,61.4324592 C596.740196,67.9395813 605.295163,72.202867 609.457023,74.2223163 C613.618948,76.2417602 627.7809,82.8049892 651.942881,93.9120033 C676.104862,105.019007 688.59049,110.628615 689.399765,110.740829 C690.209008,110.853027 696.625233,113.489533 708.64844,118.650348 C720.671621,123.811185 729.920238,127.625705 736.394292,130.093907 C742.868281,132.56212 752.232572,135.92787 764.487165,140.191159 C776.741655,144.454479 784.487447,147.147095 787.724542,148.269007 C790.961571,149.390951 795.007905,150.737255 799.863544,152.307919 C804.719118,153.878599 810.962054,155.785867 818.59235,158.029722 C826.222522,160.273529 835.93367,162.966129 847.725794,166.107522 C859.517789,169.248883 870.962942,172.053697 882.061255,174.521963 C893.159567,176.990144 900.327239,178.560822 903.564268,179.233996 C906.801298,179.907107 917.090371,181.81435 934.431486,184.955727 C951.772672,188.097169 962.639801,190.004463 967.032874,190.677611 C971.425952,191.35077 982.177459,193.033678 999.287394,195.726334 C1016.39733,198.418942 1025.06792,199.765246 1025.29917,199.765246 C1025.53035,199.765246 1033.8541,201.335959 1050.27042,204.477384 C1066.68668,207.618794 1074.9526,209.245575 1075.06819,209.35773 L1075.24168,209.52601 L1074.20126,259.676121 C1073.50758,293.109328 1071.77344,336.303243 1068.99884,389.257866 C1066.22425,442.212456 1064.02771,479.235809 1062.40923,500.327926 C1060.79068,521.420037 1058.94095,539.482945 1056.86004,554.516649 C1054.77913,569.550381 1052.35137,583.798766 1049.57677,597.261806 C1046.80218,610.724749 1043.79637,624.299815 1040.55934,637.987002 C1037.32232,651.67419 1034.43213,663.678572 1031.88878,674.000149 C1029.34544,684.321834 1026.33966,695.428831 1022.87145,707.321143 C1019.40317,719.213518 1017.32222,726.393805 1016.62861,728.862001 C1015.93493,731.330236 1014.89444,734.471613 1013.50714,738.286132 C1012.11984,742.100684 1010.50133,746.812774 1008.6516,752.422401 C1006.80194,758.031958 1003.91175,766.109699 999.981041,776.655623 C996.050399,787.201713 992.813405,795.616117 990.270057,801.898833 C987.726645,808.181554 984.605211,815.698439 980.905755,824.449486 C977.206359,833.200474 972.466475,843.746465 966.686103,856.087459 C960.905731,868.428717 957.437486,875.609038 956.281367,877.628423 C955.125319,879.647872 950.905633,886.996409 943.62231,899.674034 C936.339046,912.351793 931.94597,919.868645 930.443083,922.22459 C928.940126,924.580734 925.356291,930.526955 919.691577,940.063251 C914.026792,949.599552 910.327331,955.657897 908.593194,958.238286 C906.859121,960.818734 904.200151,964.857662 900.616283,970.355071 C897.032415,975.852473 894.142229,980.115778 891.945725,983.144984 C889.749156,986.17412 887.205779,989.764264 884.315593,993.915414 C881.425407,998.066494 878.650812,1001.88098 875.991806,1005.35888 C873.332871,1008.83696 871.251925,1011.75398 869.748968,1014.10993 C868.246081,1016.46593 866.049577,1019.49511 863.159456,1023.19744 C860.2692,1026.89977 857.494604,1030.6021 854.835669,1034.30444 C852.176664,1038.00677 849.286478,1041.82135 846.165111,1045.74819 C843.043674,1049.6749 840.384672,1053.04063 838.188103,1055.84539 C835.991529,1058.65009 831.309342,1063.97921 824.141541,1071.83276 C816.973741,1079.68611 808.534234,1088.66148 798.823021,1098.75885 C789.111873,1108.85602 780.556774,1117.49478 773.157722,1124.67513 C765.758865,1131.85536 760.845527,1136.39913 758.417708,1138.30645 C755.989888,1140.21371 750.325058,1145.03796 741.423217,1152.77918 C732.521474,1160.52041 727.087908,1165.2325 725.122519,1166.91545 C723.157201,1168.59834 718.301679,1172.74942 710.555951,1179.3687 C702.810255,1185.98798 697.723514,1190.25129 695.295727,1192.15861 C692.867973,1194.06587 690.093393,1196.30969 686.971989,1198.89008 C683.85059,1201.47047 679.515311,1205.00452 673.966152,1209.49223 C668.416961,1213.97995 664.197272,1217.28962 661.307086,1219.42126 C658.4169,1221.5529 655.642323,1223.46016 652.983356,1225.14304 C650.32435,1226.82586 645.468825,1229.74288 638.416779,1233.89409 C631.364701,1238.04517 626.740394,1240.84996 624.543857,1242.30847 C622.347321,1243.76692 619.861753,1245.28146 617.087155,1246.85209 C614.312562,1248.42285 611.422376,1250.21795 608.416597,1252.2374 C605.410786,1254.25678 603.21425,1255.71526 601.826988,1256.61283 C600.439657,1257.5104 597.433845,1259.0811 592.809554,1261.32492 C588.185263,1263.56881 582.636107,1266.14926 576.162085,1269.06627 C569.688026,1271.98316 565.179325,1273.89038 562.635983,1274.78795 L558.820913,1276.13431 L554.659072,1275.12452 C551.884479,1274.45146 548.878668,1273.32955 545.641638,1271.75878 C542.404609,1270.18815 536.971043,1267.49555 529.34094,1263.68096 C521.710838,1259.86644 517.317762,1257.51039 516.161714,1256.61283 C515.005633,1255.71526 512.057618,1253.75194 507.31767,1250.72287 C502.577753,1247.6936 498.99392,1245.44971 496.566171,1243.9912 C494.138416,1242.53276 489.3985,1239.72799 482.346422,1235.57691 C475.294376,1231.42569 470.43885,1228.50868 467.779845,1226.82586 C465.12091,1225.14304 462.346346,1223.23581 459.456155,1221.10418 C456.565937,1218.97254 453.271116,1216.44818 449.571693,1213.5311 C445.872232,1210.61408 440.958894,1206.63131 434.831678,1201.58279 C428.7045,1196.53407 423.386576,1192.15858 418.877905,1188.45632 C414.369239,1184.75399 407.77966,1179.14439 399.109166,1171.62754 C390.438641,1164.11056 384.889517,1159.39844 382.461795,1157.49118 C380.034072,1155.58398 374.716164,1151.09637 366.50807,1144.02834 C358.299943,1136.96024 353.733448,1132.9774 352.808586,1132.07983 C351.883723,1131.1822 347.779676,1127.19933 340.496444,1120.13123 C333.21318,1113.06326 328.126455,1108.01464 325.236269,1104.98537 C322.346083,1101.95623 315.987655,1095.22473 306.160984,1084.79086 C296.334345,1074.35693 290.438348,1067.96199 288.472992,1065.60604 C286.507701,1063.25003 283.617523,1059.7721 279.802458,1055.17227 C275.987405,1050.57237 272.981609,1046.87004 270.785073,1044.06527 C268.588537,1041.26038 266.39199,1038.34333 264.195432,1035.31413 C261.998863,1032.28505 259.686701,1029.14369 257.258946,1025.89004 C254.831192,1022.63653 252.634655,1019.71955 250.669337,1017.1391 C248.703982,1014.55871 247.02767,1012.25882 245.640403,1010.23944 C244.25311,1008.21993 242.345569,1005.58338 239.917782,1002.3298 C237.490028,999.076218 235.409098,996.159237 233.674992,993.578853 C231.940887,990.998464 229.628742,987.632727 226.738556,983.481642 C223.848354,979.330427 221.651799,976.076847 220.14889,973.720902 C218.646003,971.364828 216.218249,967.662495 212.865626,962.613904 C209.512993,957.565254 207.316448,954.087265 206.275993,952.179938 C205.235516,950.272617 202.345322,945.44844 197.605411,937.707408 C192.865478,929.966047 189.744074,924.91733 188.241198,922.561256 C186.738295,920.20531 182.98104,913.754309 176.969434,903.20825 C170.957827,892.662063 166.449127,884.696425 163.443331,879.311339 C160.43752,873.926058 157.77855,868.877373 155.46642,864.165283 C153.154275,859.453264 149.917256,852.385197 145.755364,842.961082 C141.593488,833.537037 139.51255,828.712796 139.51255,828.488358 C139.51255,828.263914 137.431612,823.103107 133.269736,813.005936 C129.107876,802.908565 125.870873,794.942896 123.558728,789.108927 C121.246582,783.274958 118.009572,774.411867 113.847696,762.519653 C109.68582,750.627245 105.523936,737.94952 101.362043,724.48648 C97.2001675,711.023505 92.575863,694.64348 87.4891299,675.346407 C82.4023914,656.049662 78.8185531,641.689284 76.7376151,632.265271 C74.6566772,622.841356 71.7664858,609.154088 68.0670411,591.203467 C64.3675964,573.252748 62.1710519,561.472578 61.4774077,555.862956 C60.7837581,550.253393 59.2808552,533.088021 56.9686989,504.366838 C54.6565533,475.645688 53.1536558,453.992637 52.4600062,439.407685 C51.7663566,424.822696 50.9571032,409.34019 50.0322461,392.960169 C49.1073836,376.580179 47.8356989,349.766278 46.2171922,312.518465 C44.5986855,275.270808 43.7894321,248.905702 43.7894321,233.423148 L43.7894321,210.199164 L46.0437785,209.021218 C47.546676,208.235824 51.6507474,207.282179 58.3559927,206.160284 C65.0612433,205.038351 74.3098577,203.579833 86.1018361,201.784731 C97.8938198,199.989644 115.812998,197.072619 139.859369,193.033656 C163.905763,188.994709 181.131307,186.077709 191.536002,184.282655 C201.940687,182.487584 215.698005,179.682773 232.807956,175.868222 C249.917891,172.053686 264.71567,168.463548 277.201293,165.097808 C289.686921,161.732058 300.438419,158.590692 309.455788,155.67371 C318.47319,152.756691 325.525268,150.512846 330.612023,148.942176 C335.698745,147.371485 340.554254,145.800789 345.178551,144.230087 C349.80281,142.65939 359.051376,139.293634 372.924249,134.132819 C386.797057,128.972009 399.802813,123.755084 411.941517,118.482044 C424.08022,113.20902 430.554209,110.516412 431.363484,110.40422 C432.172727,110.292012 438.010895,107.7677 448.877989,102.831285 C459.745121,97.894838 469.571795,93.4071625 478.358011,89.3682586 C487.144162,85.3293385 495.814722,81.2904157 504.369692,77.2514902 C512.924657,73.2125916 523.560571,67.939584 536.277433,61.4324673 L555.35267,51.6717437 L559.861387,51.6717437 L559.861396,51.6717437 L559.861396,51.6717437 Z"/>
      <path stroke-width="30" d="M558.376961,95.7095238 L561.071488,100.897559 L558.363466,102.304033 L555.704873,100.947885 L558.376961,95.7095238 Z M557.820772,102.585894 L543.380491,110.085791 C531.454621,116.279662 521.453141,121.312504 513.356782,125.192247 C505.375924,129.016619 497.288024,132.840627 489.092988,136.664323 C480.92268,140.476421 471.788807,144.710272 461.690617,149.366242 C449.870478,154.816075 445.900168,156.611386 443.181465,157.338682 C443.149269,157.351161 443.115205,157.364418 443.079385,157.378419 C442.381808,157.651082 441.322282,158.086428 439.934282,158.67237 C437.018908,159.903089 432.768399,161.749456 427.205702,164.20213 C415.692508,169.27847 403.380159,174.291335 390.267035,179.242707 C377.264513,184.152293 368.597215,187.353798 364.125067,188.895563 C359.69969,190.421238 355.062471,191.943827 350.212646,193.46385 C345.570656,194.918684 339.089223,197.011869 330.785025,199.738423 C322.162916,202.569387 311.956957,205.596094 300.150698,208.826453 C288.338036,212.058566 274.402919,215.490128 258.330962,219.126993 C242.242859,222.767527 229.25891,225.454375 219.330872,227.192917 C209.653572,228.887492 193.660121,231.636462 171.338203,235.442005 C148.966446,239.256032 132.281151,242.012946 121.251474,243.71721 C110.382697,245.396581 101.872951,246.758682 95.7402481,247.800167 C95.3905222,247.859563 95.0501497,247.918223 94.7192305,247.976112 L94.7192305,258.675554 C94.7192305,272.978859 95.4646213,297.627538 96.9570856,332.489579 C98.4555822,367.492905 99.632533,392.681318 100.485871,408.020781 C101.345926,423.482366 102.098686,438.100143 102.744142,451.874612 C103.378329,465.409608 104.762439,485.65059 106.895065,512.539363 C109.016964,539.29201 110.407612,555.413413 111.01344,560.386439 C111.59195,565.134753 113.585281,575.985473 116.934974,592.483215 C120.353306,609.318608 123.021113,622.142214 124.933443,630.932428 C126.811703,639.566088 130.094409,652.917079 134.765975,670.904615 C139.434866,688.882316 143.669591,704.10739 147.462932,716.562205 C151.271181,729.066073 155.075221,740.827571 158.873995,751.845249 C162.673733,762.865545 165.616337,771.043414 167.672106,776.308341 C169.788007,781.72711 172.767045,789.167933 176.603581,798.615738 C178.546605,803.40042 180.006585,807.02224 180.98842,809.493732 C181.495188,810.769376 181.880338,811.752933 182.152183,812.466977 C182.314809,812.89414 182.44564,813.247336 182.556714,813.563403 C182.629905,813.771674 182.69702,813.970054 182.764077,814.181993 C182.969773,814.687852 183.300917,815.478913 183.748139,816.531265 C184.693023,818.754655 186.125532,822.07319 188.039852,826.472952 C191.82679,835.176622 194.756495,841.669632 196.79637,845.889183 C198.821604,850.078452 201.167544,854.599553 203.833362,859.447306 C206.595184,864.469506 210.757539,871.933553 216.312782,881.825332 C221.741735,891.492062 225.182576,897.488399 226.388197,899.406685 C227.847968,901.729489 230.771902,906.529733 235.216511,913.897638 C239.763761,921.435407 242.494251,926.061363 243.626765,928.16851 C244.323904,929.465693 246.198329,932.478169 249.077562,936.878939 C252.23311,941.702044 254.526489,945.251916 255.980112,947.564945 C257.248365,949.582886 259.184423,952.493662 261.76088,956.249801 C264.484028,960.219571 266.671632,963.451791 268.331496,965.95885 C269.794213,968.168065 271.585441,970.716601 273.699815,973.59266 C276.057191,976.799326 277.932014,979.429574 279.343567,981.515269 C280.482902,983.198569 281.898192,985.169428 283.583296,987.415037 C285.437272,989.885761 287.503262,992.670534 289.782566,995.770976 C292.073494,998.887323 294.257597,1001.89919 296.335353,1004.80735 C298.266765,1007.51089 300.194274,1010.10907 302.117304,1012.60154 C304.056159,1015.1144 306.76253,1018.4979 310.219688,1022.72877 C313.74972,1027.04878 316.422259,1030.31302 318.234198,1032.51772 C319.780106,1034.39872 325.191682,1040.3563 334.045686,1049.89845 C343.135899,1059.69513 349.020283,1066.01821 351.670517,1068.83752 C354.183723,1071.51118 358.794048,1076.15558 365.420051,1082.68212 C372.17512,1089.33595 375.981245,1093.08508 376.838615,1093.92969 C377.363821,1094.44702 381.7392,1098.32037 388.889142,1104.56959 C396.31955,1111.06394 401.157043,1115.20739 403.165644,1116.80901 C405.681249,1118.81498 410.920031,1123.33027 419.162159,1130.58296 C427.111239,1137.57779 433.133226,1142.78109 437.190795,1146.16295 C441.379319,1149.65396 446.317657,1153.77807 452.006125,1158.53556 C457.612931,1163.22462 462.092266,1166.91008 465.426158,1169.57829 C468.738112,1172.22893 471.668589,1174.5078 474.209809,1176.41017 C476.612461,1178.2088 478.893236,1179.80011 481.04717,1181.18376 C483.337174,1182.65479 487.735956,1185.33705 494.143018,1189.16517 C500.721459,1193.09552 505.144078,1195.75178 507.446736,1197.15582 C509.841862,1198.6163 513.268844,1200.79418 517.771477,1203.71498 C522.213234,1206.59606 525.03594,1208.49437 526.689183,1209.74882 C526.734095,1209.77615 526.787678,1209.80842 526.849198,1209.84503 C527.306897,1210.11742 527.978989,1210.49649 528.842366,1210.96647 C530.732347,1211.99529 533.401189,1213.38554 536.821421,1215.12105 C543.847853,1218.68652 548.844256,1221.19962 551.779115,1222.645 C553.613298,1223.54838 555.218876,1224.18136 556.570152,1224.56406 C558.612924,1223.7759 562.232949,1222.20558 567.218484,1219.92566 C573.100605,1217.23557 578.120659,1214.86616 582.269053,1212.82302 C585.996409,1210.98732 588.432718,1209.69512 589.025616,1209.30576 C590.222145,1208.52 592.198785,1207.18785 594.919906,1205.33229 C598.015917,1203.22106 601.020582,1201.32687 603.939276,1199.64972 C606.215581,1198.34184 608.219282,1197.1026 609.944437,1195.93996 C612.285027,1194.36249 616.723225,1191.63021 623.500221,1187.58122 C629.907507,1183.75297 634.306283,1181.07071 636.59598,1179.59988 C638.750193,1178.21601 641.031075,1176.62462 643.433624,1174.82609 C645.898186,1172.98108 649.658252,1169.98769 654.646313,1165.89333 C659.754646,1161.70016 663.737187,1158.40497 666.583619,1156.01662 C669.568764,1153.51179 672.236795,1151.32176 674.593113,1149.44291 C676.624791,1147.82281 681.24812,1143.8898 688.269197,1137.79982 C695.448643,1131.57236 699.950169,1127.66621 701.767407,1126.08689 C703.5484,1124.53894 708.578868,1120.11097 716.798775,1112.85544 C725.264644,1105.38287 730.608964,1100.7633 733.134382,1098.74962 C734.827109,1097.39984 739.158637,1093.33401 745.630217,1086.95944 C752.35889,1080.33168 760.175602,1072.32014 769.070782,1062.93266 C777.992698,1053.51684 785.732774,1045.16183 792.286379,1037.87368 C798.683191,1030.75977 802.860412,1025.93407 804.59156,1023.69051 C806.652947,1021.01888 809.140539,1017.8229 812.055987,1014.10035 C814.804451,1010.5908 817.339897,1007.19422 819.662111,1003.9123 C822.244019,1000.26333 824.935591,996.617952 827.736386,992.976449 C830.152792,989.834503 831.933823,987.341453 833.03795,985.584605 C834.685732,982.962832 836.846177,979.888941 839.546371,976.303939 C841.873896,973.213939 844.318688,969.802452 846.877775,966.071806 C849.608901,962.090196 852.021136,958.634053 854.118583,955.698214 C855.988155,953.081344 858.54247,949.256978 861.744182,944.271981 C865.102506,939.043331 867.600751,935.191642 869.256173,932.69127 C870.653232,930.581278 874.007548,925.005815 879.110185,916.287114 C884.455153,907.154044 887.814742,901.496242 889.327346,899.089419 C890.540131,897.159734 894.597893,890.112492 901.196164,878.454812 C907.944937,866.531487 911.858826,859.613276 912.925718,857.721616 C913.698178,856.35218 916.916085,849.59017 922.020417,838.528665 C927.307828,827.07088 931.629889,817.310299 934.980901,809.264479 C938.384722,801.092007 941.251817,794.0841 943.579872,788.24718 C945.879931,782.480113 948.836373,774.679724 952.438267,764.870855 C956.024087,755.105855 958.648382,747.661163 960.294132,742.595101 C962.052613,737.182242 963.599991,732.609748 964.942462,728.863188 C966.114337,725.592513 966.970736,722.968096 967.502166,721.048877 C968.164306,718.657356 970.097428,711.88707 973.331378,700.631813 C976.492414,689.630167 979.226756,679.374664 981.534447,669.868999 C983.881447,660.201277 986.551452,648.945148 989.543725,636.103322 C992.513554,623.357533 995.270732,610.718488 997.815337,598.186151 C1000.32247,585.838636 1002.52052,572.74491 1004.40765,558.906526 C1006.29316,545.080267 1007.97936,528.367558 1009.45932,508.7926 C1010.94879,489.090096 1012.98053,454.330779 1015.54797,404.595493 C1018.11381,354.890302 1019.71627,314.377373 1020.35602,283.081985 L1021.0679,248.253807 C1018.046,247.660545 1014.45574,246.960045 1010.2987,246.152625 C1002.69792,244.676333 996.973003,243.569582 993.128541,242.833246 C991.221088,242.467908 989.781967,242.194799 988.819681,242.015471 C988.682562,241.989918 988.55604,241.966442 988.440517,241.94511 C986.458773,241.671821 980.774638,240.760123 963.509561,238.00235 C947.664218,235.471268 937.702294,233.888544 933.656773,233.259342 C929.390435,232.595866 919.251497,230.789694 903.013769,227.803992 C886.751185,224.813806 877.193255,223.015517 874.001248,222.341815 C870.905283,221.68833 864.219039,220.201181 853.85369,217.861436 C843.351914,215.490814 832.533491,212.799845 821.397565,209.788799 C810.345512,206.800347 801.219898,204.232122 794.003633,202.078208 C786.807095,199.930197 780.893891,198.09659 776.245016,196.570229 C771.649146,195.061293 767.800726,193.761601 764.688465,192.666659 C761.678432,191.607804 754.491999,189.072169 743.120568,185.056725 C731.627101,180.998244 722.816762,177.784087 716.647775,175.396868 C710.412354,172.983992 701.662853,169.321201 690.337586,164.387016 C684.828225,161.986722 680.617692,160.179547 677.728799,158.974664 C676.353605,158.401105 675.303573,157.974872 674.611854,157.707784 C674.457582,157.648216 674.3361,157.602378 674.25626,157.5728 C670.872013,156.543714 663.930474,153.321994 637.395958,140.941481 C614.845868,130.419982 601.709792,124.240888 597.708281,122.270158 C593.763604,120.327367 585.789544,116.293971 573.717388,110.136068 L558.916025,102.585894 L557.820772,102.585894 Z M441.461779,157.696786 C441.393413,157.707159 441.324872,157.717164 441.256018,157.726857 C441.328237,157.716698 441.398424,157.706389 441.466754,157.695923 Z M88.1168803,249.339193 C87.996735,249.372596 87.8947019,249.402599 87.8117834,249.428702 C87.9591136,249.382321 88.2478474,249.269709 88.8369469,248.957302 L88.1168803,249.339193 Z M88.8369469,248.957302 C88.8373094,248.957109 88.837672,248.956917 88.8380347,248.956725 L88.8369469,248.957302 Z M183.352944,816.461382 C183.454853,817.099137 183.495604,817.795162 183.495604,818.833653 C183.495604,817.772968 183.451673,817.05634 183.346868,816.414103 Z M182.641389,813.876771 C182.641121,813.87605 182.640852,813.87533 182.640584,813.874611 C182.64076,813.875083 182.643438,813.881892 182.648417,813.894456 Z M526.555888,1209.66628 C526.552273,1209.66391 526.548704,1209.66157 526.545177,1209.65927 C526.554402,1209.66529 526.566837,1209.67322 526.582344,1209.68296 Z M674.25626,157.5728 C674.218699,157.558884 674.190355,157.548567 674.172148,157.542112 C674.27142,157.57521 674.379881,157.609292 674.534188,157.653654 C674.800771,157.730293 675.070331,157.800753 675.372459,157.865902 C675.131792,157.817384 674.728687,157.716456 674.25626,157.5728 Z M675.372459,157.865902 C675.669501,157.929955 675.998024,157.988874 676.386147,158.043489 C676.095413,158.002564 675.810496,157.956126 675.509199,157.894535 Z M153.632344,821.17256 C153.541764,820.572582 153.500144,819.906556 153.495958,818.991003 C153.500085,819.953044 153.53951,820.59145 153.632344,821.17256 Z M434.696121,128.574527 C434.695692,128.574678 434.695264,128.574828 434.694836,128.574978 C434.694205,128.5752 434.700184,128.572895 434.712247,128.568214 Z"/>
    </g>
    <g fill-rule="nonzero" transform="translate(208 254)">
      <path fill="#AA2531" d="M586.716799,359.30744 C586.716799,407.115308 572.5344,451.560751 548.385067,488.939982 L629.076268,560.694452 C673.261868,502.116587 699.783468,429.457505 699.783468,350.414937 C699.783468,271.816143 673.552001,199.515493 629.793068,141.091242 L541.575467,219.792446 C569.854934,259.100377 586.716799,307.181335 586.716799,359.30744"/>
      <path fill="#262652" d="M536.216532,505.991055 C492.423466,562.26472 424.242134,598.619864 347.425066,598.619864 C215.2608,598.619864 108.133333,491.466066 108.133333,359.30744 C108.133333,227.131747 215.2608,119.995018 347.425066,119.995018 C419.958399,119.995018 484.811734,152.390352 528.690132,203.372893 L616.958934,124.637552 C552.788266,48.7867281 457.0272,0.518021829 349.916801,0.518021829 C156.688,0.518021829 0.0501333334,157.169432 0.0501333334,350.414937 C0.0501333334,543.660445 156.688,700.311856 349.916801,700.311856 C456.617599,700.311856 551.986132,652.401579 616.1568,577.079869 L536.216532,505.991055"/>
      <path fill="#AA2531" d="M444,362.5 C444,416.345073 400.345074,460 346.5,460 C292.6378,460 249,416.345073 249,362.5 C249,308.637801 292.6378,265 346.5,265 C400.345074,265 444,308.637801 444,362.5"/>
    </g>
    <g fill-rule="nonzero">
      <use fill="#424242" xlink:href="#armory-logo-a"/>
      <use fill="#494949" xlink:href="#armory-logo-a"/>
    </g>
  </g>
</svg>
