<svg xmlns="http://www.w3.org/2000/svg" xmlns:xlink="http://www.w3.org/1999/xlink" viewBox="0 0 3224 713">
  <defs>
    <path id="armory-logo-a" d="M277.832031,64.9765625 C342.285156,64.9765625 398.925781,90.0416667 447.753906,140.171875 L447.753906,140.171875 L447.753906,105.015625 L549.316406,105.015625 L549.316406,607.945312 L447.753906,607.945312 L447.753906,544.957031 L446.286719,546.463135 C397.792188,595.914795 341.640625,620.640625 277.832031,620.640625 C201.009115,620.640625 135.498047,593.541016 81.2988281,539.341797 C27.0996094,485.142578 0,419.63151 0,342.808594 C0,265.985677 27.0996094,200.474609 81.2988281,146.275391 C135.498047,92.0761719 201.009115,64.9765625 277.832031,64.9765625 Z M277.832031,168.980469 C229.654948,168.980469 188.557943,185.907552 154.541016,219.761719 C120.524089,253.615885 103.515625,294.63151 103.515625,342.808594 C103.515625,390.660156 120.524089,431.594401 154.541016,465.611328 C188.557943,499.628255 229.654948,516.636719 277.832031,516.636719 C325.683594,516.636719 366.699219,499.709635 400.878906,465.855469 C426.269531,440.139323 441.894531,411.49349 447.753906,379.917969 L447.753906,379.917969 L447.753906,305.699219 L447.575195,304.752832 C441.581055,273.551074 426.015625,245.220703 400.878906,219.761719 C366.699219,185.907552 325.683594,168.980469 277.832031,168.980469 Z"/>
    <path id="armory-logo-b" d="M797.363281,607.457031 L797.363281,349.15625 C798.665365,304.234375 815.755208,265.497396 848.632812,232.945312 C870.442708,211.135417 899.739583,199.253906 936.523438,197.300781 L936.523438,197.300781 L936.523438,92.3203125 C881.510417,94.9244792 835.123698,121.779948 797.363281,172.886719 L797.363281,172.886719 L797.363281,105.015625 L696.289062,105.015625 L696.289062,607.457031 L797.363281,607.457031 Z"/>
    <path id="armory-logo-c" d="M1149.41406,607.457031 L1149.41406,277.378906 C1150.71615,234.084635 1156.57552,207.391927 1166.99219,197.300781 C1179.03646,185.582031 1193.35938,179.722656 1209.96094,179.722656 C1250.32552,179.722656 1270.50781,204.46224 1270.50781,253.941406 L1270.50781,253.941406 L1270.01953,607.457031 L1371.09375,607.457031 L1371.09375,315.464844 C1371.09375,248.407552 1377.11589,209.019531 1389.16016,197.300781 C1401.20443,185.582031 1415.52734,179.722656 1432.12891,179.722656 C1472.16797,179.722656 1492.1875,204.46224 1492.1875,253.941406 L1492.1875,253.941406 L1492.1875,607.457031 L1593.75,607.457031 L1593.75,207.554688 C1593.75,121.291667 1558.26823,78.1601562 1487.30469,78.1601562 C1415.36458,78.1601562 1371.41927,106.154948 1355.46875,162.144531 C1348.63281,106.154948 1317.54557,78.1601562 1262.20703,78.1601562 C1206.54297,78.1601562 1168.94531,102.736979 1149.41406,151.890625 L1149.41406,151.890625 L1149.41406,105.015625 L1048.33984,105.015625 L1048.33984,607.457031 L1149.41406,607.457031 Z"/>
    <path id="armory-logo-d" d="M2485.35156,607.457031 L2485.35156,349.15625 C2486.65365,304.234375 2503.74349,265.497396 2536.62109,232.945312 C2558.43099,211.135417 2587.72786,199.253906 2624.51172,197.300781 L2624.51172,197.300781 L2624.51172,92.3203125 C2569.4987,94.9244792 2523.11198,121.779948 2485.35156,172.886719 L2485.35156,172.886719 L2485.35156,105.015625 L2384.27734,105.015625 L2384.27734,607.457031 L2485.35156,607.457031 Z"/>
    <polygon id="armory-logo-e" points="2901.855 776.402 3223.633 105.016 3110.352 105.016 2982.91 379.918 2855.469 105.016 2741.699 105.016 2928.711 495.641 2794.922 776.402"/>
  </defs>
  <g fill="none" transform="translate(0 -64)">
    <use fill="#424242" xlink:href="#armory-logo-a"/>
    <use fill="#494949" xlink:href="#armory-logo-a"/>
    <use fill="#424242" xlink:href="#armory-logo-b"/>
    <use fill="#494949" xlink:href="#armory-logo-b"/>
    <use fill="#424242" xlink:href="#armory-logo-c"/>
    <use fill="#494949" xlink:href="#armory-logo-c"/>
    <g transform="translate(1712 64)">
      <path fill="#AA2531" d="M465.182605,285.498208 C465.182605,323.485345 453.937988,358.800768 434.791017,388.501526 L498.767612,445.516134 C533.800481,398.971382 554.828321,341.237989 554.828321,278.432411 C554.828321,215.979446 534.030515,158.530855 499.335932,112.108162 L429.391977,174.6425 C451.813554,205.875763 465.182605,244.079891 465.182605,285.498208"/>
      <path fill="#262652" d="M425.143108,402.049954 C390.421462,446.763836 336.363406,475.650876 275.458446,475.650876 C170.671063,475.650876 85.7342858,390.5087 85.7342858,285.498208 C85.7342858,180.474155 170.671063,95.3455418 275.458446,95.3455418 C332.967017,95.3455418 384.386446,121.0862 419.175748,161.595865 L489.160298,99.0344033 C438.282126,38.7649181 362.35728,0.411609356 277.434035,0.411609356 C124.2312,0.411609356 0.0397485714,124.883557 0.0397485714,278.432411 C0.0397485714,431.981267 124.2312,556.453215 277.434035,556.453215 C362.032525,556.453215 437.646148,518.384707 488.52432,458.535645 L425.143108,402.049954"/>
      <path fill="#AA2531" d="M352.028571,288.03495 C352.028571,330.819124 317.416451,365.506419 274.725,365.506419 C232.01997,365.506419 197.421429,330.819124 197.421429,288.03495 C197.421429,245.237169 232.01997,210.563481 274.725,210.563481 C317.416451,210.563481 352.028571,245.237169 352.028571,288.03495"/>
    </g>
    <use fill="#424242" xlink:href="#armory-logo-d"/>
    <use fill="#494949" xlink:href="#armory-logo-d"/>
    <use fill="#424242" xlink:href="#armory-logo-e"/>
    <use fill="#494949" xlink:href="#armory-logo-e"/>
  </g>
</svg>
