<svg xmlns="http://www.w3.org/2000/svg" viewBox="0 0 1280 640">
  <g fill="none" fill-rule="evenodd">
    <g fill-rule="nonzero" transform="translate(40 40)">
      <path fill="#424242" d="M103.390339,0.363759249 C127.375445,0.363759249 148.453264,9.70024666 166.623798,28.3732214 L166.623798,28.3732214 L166.623798,15.2778885 L204.41851,15.2778885 L204.41851,202.613902 L166.623798,202.613902 L166.623798,179.15143 L166.07781,179.712438 C148.031417,198.132661 127.135594,207.342772 103.390339,207.342772 C74.8020326,207.342772 50.4232324,197.248453 30.2539394,177.059815 C10.0846465,156.871176 0,132.468993 0,103.853266 C0,75.237538 10.0846465,50.835355 30.2539394,30.6467169 C50.4232324,10.4580784 74.8020326,0.363759249 103.390339,0.363759249 Z M103.390339,39.1041194 C85.4620792,39.1041194 70.1685463,45.4092796 57.5097409,58.0196004 C44.8509354,70.6299208 38.5215325,85.9078092 38.5215325,103.853266 C38.5215325,121.677469 44.8509354,136.925044 57.5097409,149.595991 C70.1685463,162.266938 85.4620792,168.602412 103.390339,168.602412 C121.197463,168.602412 136.460712,162.297252 149.180086,149.686931 C158.628763,140.107938 164.443334,129.437666 166.623798,117.676117 L166.623798,117.676117 L166.623798,90.0304143 L166.557294,89.6778951 C164.32668,78.0555688 158.534277,67.5028038 149.180086,58.0196004 C136.460712,45.4092796 121.197463,39.1041194 103.390339,39.1041194 Z" transform="translate(0 .431)"/>
      <path fill="#494949" d="M103.390339,0.363759249 C127.375445,0.363759249 148.453264,9.70024666 166.623798,28.3732214 L166.623798,28.3732214 L166.623798,15.2778885 L204.41851,15.2778885 L204.41851,202.613902 L166.623798,202.613902 L166.623798,179.15143 L166.07781,179.712438 C148.031417,198.132661 127.135594,207.342772 103.390339,207.342772 C74.8020326,207.342772 50.4232324,197.248453 30.2539394,177.059815 C10.0846465,156.871176 0,132.468993 0,103.853266 C0,75.237538 10.0846465,50.835355 30.2539394,30.6467169 C50.4232324,10.4580784 74.8020326,0.363759249 103.390339,0.363759249 Z M103.390339,39.1041194 C85.4620792,39.1041194 70.1685463,45.4092796 57.5097409,58.0196004 C44.8509354,70.6299208 38.5215325,85.9078092 38.5215325,103.853266 C38.5215325,121.677469 44.8509354,136.925044 57.5097409,149.595991 C70.1685463,162.266938 85.4620792,168.602412 103.390339,168.602412 C121.197463,168.602412 136.460712,162.297252 149.180086,149.686931 C158.628763,140.107938 164.443334,129.437666 166.623798,117.676117 L166.623798,117.676117 L166.623798,90.0304143 L166.557294,89.6778951 C164.32668,78.0555688 158.534277,67.5028038 149.180086,58.0196004 C136.460712,45.4092796 121.197463,39.1041194 103.390339,39.1041194 Z" transform="translate(0 .431)"/>
      <path fill="#424242" d="M37.7355837,192.320779 L37.7355837,95.946873 C38.2203243,79.1861937 44.5825415,64.7331442 56.8222358,52.5877242 C64.9416371,44.4502932 75.8482955,40.0172148 89.5422114,39.2884896 L89.5422114,39.2884896 L89.5422114,0.119510931 C69.0619306,1.09114453 51.7930547,11.1111159 37.7355837,30.179425 L37.7355837,30.179425 L37.7355837,4.85622464 L0.107612177,4.85622464 L0.107612177,192.320779 L37.7355837,192.320779 Z" transform="translate(258.879 10.712)"/>
      <path fill="#494949" d="M37.7355837,192.320779 L37.7355837,95.946873 C38.2203243,79.1861937 44.5825415,64.7331442 56.8222358,52.5877242 C64.9416371,44.4502932 75.8482955,40.0172148 89.5422114,39.2884896 L89.5422114,39.2884896 L89.5422114,0.119510931 C69.0619306,1.09114453 51.7930547,11.1111159 37.7355837,30.179425 L37.7355837,30.179425 L37.7355837,4.85622464 L0.107612177,4.85622464 L0.107612177,192.320779 L37.7355837,192.320779 Z" transform="translate(258.879 10.712)"/>
      <path fill="#424242" d="M37.6687738,196.99424 L37.6687738,74.1825942 C38.1524161,58.0741633 40.3287937,48.1426496 44.1979139,44.3880529 C48.6715823,40.0278761 53.9916221,37.8477877 60.1580295,37.8477877 C75.1508641,37.8477877 82.6472815,47.0526056 82.6472815,65.4622406 L82.6472815,65.4622406 L82.465917,196.99424 L120.008462,196.99424 L120.008462,88.3531689 C120.008462,63.4032683 122.245298,48.7482297 126.718967,44.3880529 C131.192635,40.0278761 136.512671,37.8477877 142.679082,37.8477877 C157.551007,37.8477877 164.98697,47.0526056 164.98697,65.4622406 L164.98697,65.4622406 L164.98697,196.99424 L202.710879,196.99424 L202.710879,48.2032078 C202.710879,16.1074621 189.531693,0.059589064 163.173321,0.059589064 C136.452216,0.059589064 120.129372,10.475567 114.204784,31.3075226 C111.665673,10.475567 100.118772,0.059589064 79.5640778,0.059589064 C58.8884744,0.059589064 44.9233718,9.20384865 37.6687738,27.492368 L37.6687738,27.492368 L37.6687738,10.0516609 L0.126228613,10.0516609 L0.126228613,196.99424 L37.6687738,196.99424 Z" transform="translate(390.654 6.039)"/>
      <path fill="#494949" d="M37.6687738,196.99424 L37.6687738,74.1825942 C38.1524161,58.0741633 40.3287937,48.1426496 44.1979139,44.3880529 C48.6715823,40.0278761 53.9916221,37.8477877 60.1580295,37.8477877 C75.1508641,37.8477877 82.6472815,47.0526056 82.6472815,65.4622406 L82.6472815,65.4622406 L82.465917,196.99424 L120.008462,196.99424 L120.008462,88.3531689 C120.008462,63.4032683 122.245298,48.7482297 126.718967,44.3880529 C131.192635,40.0278761 136.512671,37.8477877 142.679082,37.8477877 C157.551007,37.8477877 164.98697,47.0526056 164.98697,65.4622406 L164.98697,65.4622406 L164.98697,196.99424 L202.710879,196.99424 L202.710879,48.2032078 C202.710879,16.1074621 189.531693,0.059589064 163.173321,0.059589064 C136.452216,0.059589064 120.129372,10.475567 114.204784,31.3075226 C111.665673,10.475567 100.118772,0.059589064 79.5640778,0.059589064 C58.8884744,0.059589064 44.9233718,9.20384865 37.6687738,27.492368 L37.6687738,27.492368 L37.6687738,10.0516609 L0.126228613,10.0516609 L0.126228613,196.99424 L37.6687738,196.99424 Z" transform="translate(390.654 6.039)"/>
      <g transform="translate(637.383 .431)">
        <path fill="#AA2531" d="M173.116706,106.345077 C173.116706,120.494885 168.932046,133.649508 161.806542,144.712728 L185.615294,165.950069 C198.652701,148.612639 206.478166,127.107558 206.478166,103.713142 C206.478166,80.4500697 198.738307,59.0510744 185.826793,41.75911 L159.797301,65.0524925 C168.141442,76.6865541 173.116706,90.9171896 173.116706,106.345077"/>
        <path fill="#262652" d="M158.216093,149.759375 C145.294507,166.414825 125.176918,177.174943 102.511268,177.174943 C63.5148689,177.174943 31.90583,145.460379 31.90583,106.345077 C31.90583,67.2247226 63.5148689,35.5152105 102.511268,35.5152105 C123.912959,35.5152105 143.048589,45.1033346 155.995353,60.1927583 L182.039953,36.8892725 C163.10575,14.4395238 134.850482,0.153320151 103.246479,0.153320151 C46.2323738,0.153320151 0.0147923453,46.5178101 0.0147923453,103.713142 C0.0147923453,160.908474 46.2323738,207.272964 103.246479,207.272964 C134.729625,207.272964 162.869073,193.092845 181.803275,170.7997 L158.216093,149.759375"/>
        <path fill="#AA2531" d="M131.006675,107.289986 C131.006675,123.226641 118.125849,136.147293 102.238318,136.147293 C86.3457327,136.147293 73.4699601,123.226641 73.4699601,107.289986 C73.4699601,91.3482634 86.3457327,78.4326797 102.238318,78.4326797 C118.125849,78.4326797 131.006675,91.3482634 131.006675,107.289986"/>
      </g>
      <path fill="#424242" d="M37.7312202,192.320779 L37.7312202,95.946873 C38.2159631,79.1861937 44.5781791,64.7331442 56.817872,52.5877242 C64.9372748,44.4502932 75.8439313,40.0172148 89.537849,39.2884896 L89.537849,39.2884896 L89.537849,0.119510931 C69.0575685,1.09114453 51.7886923,11.1111159 37.7312202,30.179425 L37.7312202,30.179425 L37.7312202,4.85622464 L0.103248303,4.85622464 L0.103248303,192.320779 L37.7312202,192.320779 Z" transform="translate(886.916 10.712)"/>
      <path fill="#494949" d="M37.7312202,192.320779 L37.7312202,95.946873 C38.2159631,79.1861937 44.5781791,64.7331442 56.817872,52.5877242 C64.9372748,44.4502932 75.8439313,40.0172148 89.537849,39.2884896 L89.537849,39.2884896 L89.537849,0.119510931 C69.0575685,1.09114453 51.7886923,11.1111159 37.7312202,30.179425 L37.7312202,30.179425 L37.7312202,4.85622464 L0.103248303,4.85622464 L0.103248303,192.320779 L37.7312202,192.320779 Z" transform="translate(886.916 10.712)"/>
      <polygon fill="#424242" points="59.759 250.244 179.303 .006 137.218 .006 89.872 102.467 42.526 .006 .26 .006 69.736 145.599 20.033 250.244" transform="translate(1020.56 16.32)"/>
      <polygon fill="#494949" points="59.759 250.244 179.303 .006 137.218 .006 89.872 102.467 42.526 .006 .26 .006 69.736 145.599 20.033 250.244" transform="translate(1020.56 16.32)"/>
    </g>
    <path fill="#424242" fill-rule="nonzero" d="M227.783203,396.492188 C235.465495,396.492188 242.02474,393.774089 247.460938,388.337891 C248.567708,387.23112 250.358073,384.96875 252.832031,381.550781 L252.832031,381.550781 L242.724609,377.9375 C241.422526,379.5 240.559896,380.509115 240.136719,380.964844 C236.71875,384.35026 232.600911,386.042969 227.783203,386.042969 C222.998047,386.042969 218.904622,384.342122 215.50293,380.94043 C212.101237,377.538737 210.400391,373.445312 210.400391,368.660156 C210.400391,363.842448 212.101237,359.732747 215.50293,356.331055 C218.904622,352.929362 222.998047,351.228516 227.783203,351.228516 C232.600911,351.228516 236.702474,352.921224 240.087891,356.306641 C240.54362,356.76237 241.422526,357.78776 242.724609,359.382812 L242.724609,359.382812 L252.832031,355.671875 C250.358073,352.31901 248.567708,350.089193 247.460938,348.982422 C242.02474,343.546224 235.465495,340.828125 227.783203,340.828125 C220.133464,340.828125 213.590495,343.546224 208.154297,348.982422 C202.718099,354.41862 200,360.977865 200,368.660156 C200,376.342448 202.718099,382.901693 208.154297,388.337891 C213.590495,393.774089 220.133464,396.492188 227.783203,396.492188 Z M289.404297,396.492188 C297.086589,396.492188 303.637695,393.774089 309.057617,388.337891 C314.477539,382.901693 317.1875,376.342448 317.1875,368.660156 C317.1875,360.977865 314.477539,354.41862 309.057617,348.982422 C303.637695,343.546224 297.086589,340.828125 289.404297,340.828125 C281.754557,340.828125 275.211589,343.546224 269.775391,348.982422 C264.339193,354.41862 261.621094,360.977865 261.621094,368.660156 C261.621094,376.342448 264.339193,382.901693 269.775391,388.337891 C275.211589,393.774089 281.754557,396.492188 289.404297,396.492188 Z M289.404297,386.042969 C284.586589,386.042969 280.476888,384.35026 277.075195,380.964844 C273.673503,377.579427 271.972656,373.477865 271.972656,368.660156 C271.972656,363.875 273.673503,359.773438 277.075195,356.355469 C280.476888,352.9375 284.586589,351.228516 289.404297,351.228516 C294.222005,351.228516 298.331706,352.9375 301.733398,356.355469 C305.135091,359.773438 306.835938,363.875 306.835938,368.660156 C306.835938,373.477865 305.135091,377.579427 301.733398,380.964844 C298.331706,384.35026 294.222005,386.042969 289.404297,386.042969 Z M339.013672,395.173828 L339.013672,362.166016 C339.14388,357.836589 339.729818,355.167318 340.771484,354.158203 C341.975911,352.986328 343.408203,352.400391 345.068359,352.400391 C349.104818,352.400391 351.123047,354.874349 351.123047,359.822266 L351.123047,359.822266 L351.074219,395.173828 L361.181641,395.173828 L361.182574,365.521688 C361.209325,359.091273 361.811228,355.303445 362.988281,354.158203 C364.192708,352.986328 365.625,352.400391 367.285156,352.400391 C371.289062,352.400391 373.291016,354.874349 373.291016,359.822266 L373.291016,359.822266 L373.291016,395.173828 L383.447266,395.173828 L383.447266,355.183594 C383.447266,346.557292 379.899089,342.244141 372.802734,342.244141 C365.608724,342.244141 361.214193,345.04362 359.619141,350.642578 C358.935547,345.04362 355.826823,342.244141 350.292969,342.244141 C344.726562,342.244141 340.966797,344.701823 339.013672,349.617188 L339.013672,349.617188 L339.013672,344.929688 L328.90625,344.929688 L328.90625,395.173828 L339.013672,395.173828 Z M408.251953,412.068359 L408.251953,388.923828 C413.134766,393.969401 418.815104,396.492188 425.292969,396.492188 C432.97526,396.492188 439.526367,393.774089 444.946289,388.337891 C450.366211,382.901693 453.076172,376.342448 453.076172,368.660156 C453.076172,360.977865 450.366211,354.426758 444.946289,349.006836 C439.526367,343.586914 432.97526,340.876953 425.292969,340.876953 C418.815104,340.876953 413.134766,343.741536 408.251953,349.470703 L408.251953,349.470703 L408.251953,344.929688 L398.144531,344.929688 L398.144531,412.068359 L408.251953,412.068359 Z M425.292969,386.091797 C420.47526,386.091797 416.373698,384.399089 412.988281,381.013672 C410.449219,378.507161 408.870443,375.707682 408.251953,372.615234 L408.251953,372.615234 L408.251953,364.753906 C408.870443,361.661458 410.449219,358.861979 412.988281,356.355469 C416.373698,352.9375 420.47526,351.228516 425.292969,351.228516 C430.110677,351.228516 434.220378,352.9375 437.62207,356.355469 C441.023763,359.773438 442.724609,363.875 442.724609,368.660156 C442.724609,373.477865 441.023763,377.587565 437.62207,380.989258 C434.220378,384.390951 430.110677,386.091797 425.292969,386.091797 Z M490.136719,396.492188 C497.81901,396.492188 504.370117,393.774089 509.790039,388.337891 C515.209961,382.901693 517.919922,376.342448 517.919922,368.660156 C517.919922,360.977865 515.209961,354.41862 509.790039,348.982422 C504.370117,343.546224 497.81901,340.828125 490.136719,340.828125 C482.486979,340.828125 475.94401,343.546224 470.507812,348.982422 C465.071615,354.41862 462.353516,360.977865 462.353516,368.660156 C462.353516,376.342448 465.071615,382.901693 470.507812,388.337891 C475.94401,393.774089 482.486979,396.492188 490.136719,396.492188 Z M490.136719,386.042969 C485.31901,386.042969 481.20931,384.35026 477.807617,380.964844 C474.405924,377.579427 472.705078,373.477865 472.705078,368.660156 C472.705078,363.875 474.405924,359.773438 477.807617,356.355469 C481.20931,352.9375 485.31901,351.228516 490.136719,351.228516 C494.954427,351.228516 499.064128,352.9375 502.46582,356.355469 C505.867513,359.773438 507.568359,363.875 507.568359,368.660156 C507.568359,373.477865 505.867513,377.579427 502.46582,380.964844 C499.064128,384.35026 494.954427,386.042969 490.136719,386.042969 Z M539.794922,395.173828 L539.794922,358.40625 C540.152995,357.592448 540.917969,356.583333 542.089844,355.378906 C544.205729,353.360677 546.71224,352.351562 549.609375,352.351562 C552.539062,352.351562 555.061849,353.385091 557.177734,355.452148 C559.29362,357.519206 560.351562,360.001302 560.351562,362.898438 L560.351562,362.898438 L560.351562,395.173828 L570.458984,395.173828 L570.458984,362.507812 C570.361328,356.68099 568.70931,351.838867 565.50293,347.981445 C562.296549,344.124023 557.97526,342.195312 552.539062,342.195312 C546.158854,342.195312 541.910807,345.059896 539.794922,350.789062 L539.794922,350.789062 L539.794922,344.929688 L529.638672,344.929688 L529.638672,395.173828 L539.794922,395.173828 Z M610.107422,396.492188 C617.789714,396.492188 624.348958,393.774089 629.785156,388.337891 C630.891927,387.23112 632.682292,384.96875 635.15625,381.550781 L635.15625,381.550781 L625.048828,377.9375 C623.746745,379.5 622.884115,380.509115 622.460938,380.964844 C619.042969,384.35026 614.92513,386.042969 610.107422,386.042969 C605.647786,386.042969 602.571615,385.294271 600.878906,383.796875 L600.878906,383.796875 L627.490234,357.185547 L632.568359,352.058594 C631.038411,350.333333 630.110677,349.307943 629.785156,348.982422 C629.003906,348.201172 628.20638,347.46875 627.392578,346.785156 C622.444661,342.813802 616.682943,340.828125 610.107422,340.828125 C602.457682,340.828125 595.914714,343.546224 590.478516,348.982422 C585.042318,354.41862 582.324219,360.977865 582.324219,368.660156 C582.324219,376.342448 585.042318,382.901693 590.478516,388.337891 C595.914714,393.774089 602.457682,396.492188 610.107422,396.492188 Z M594.042969,376.326172 C593.164062,375.154297 592.724609,372.598958 592.724609,368.660156 C592.724609,363.842448 594.425456,359.732747 597.827148,356.331055 C601.228841,352.929362 605.322266,351.228516 610.107422,351.228516 C614.078776,351.228516 616.634115,351.667969 617.773438,352.546875 L617.773438,352.546875 L594.042969,376.326172 Z M657.03125,395.173828 L657.03125,358.40625 C657.389323,357.592448 658.154297,356.583333 659.326172,355.378906 C661.442057,353.360677 663.948568,352.351562 666.845703,352.351562 C669.775391,352.351562 672.298177,353.385091 674.414062,355.452148 C676.529948,357.519206 677.587891,360.001302 677.587891,362.898438 L677.587891,362.898438 L677.587891,395.173828 L687.695312,395.173828 L687.695312,362.507812 C687.597656,356.68099 685.945638,351.838867 682.739258,347.981445 C679.532878,344.124023 675.211589,342.195312 669.775391,342.195312 C663.395182,342.195312 659.147135,345.059896 657.03125,350.789062 L657.03125,350.789062 L657.03125,344.929688 L646.875,344.929688 L646.875,395.173828 L657.03125,395.173828 Z M718.701172,395.173828 L718.701172,355.037109 L727.734375,355.037109 L727.734375,344.929688 L718.701172,344.929688 L718.701172,326.082031 L708.59375,326.082031 L708.59375,344.929688 L699.560547,344.929688 L699.560547,355.037109 L708.59375,355.037109 L708.59375,395.173828 L718.701172,395.173828 Z M784.228516,395.173828 L784.228516,317 L774.072266,317 L774.072266,395.173828 L784.228516,395.173828 Z M804.736328,338.435547 C806.689453,338.435547 808.365885,337.751953 809.765625,336.384766 C811.165365,335.017578 811.865234,333.341146 811.865234,331.355469 C811.865234,329.369792 811.165365,327.693359 809.765625,326.326172 C808.365885,324.958984 806.689453,324.275391 804.736328,324.275391 C802.815755,324.275391 801.155599,324.958984 799.755859,326.326172 C798.35612,327.693359 797.65625,329.369792 797.65625,331.355469 C797.65625,333.341146 798.35612,335.017578 799.755859,336.384766 C801.155599,337.751953 802.815755,338.435547 804.736328,338.435547 Z M809.814453,395.173828 L809.814453,344.929688 L799.707031,344.929688 L799.707031,395.173828 L809.814453,395.173828 Z M852.441406,396.492188 C860.123698,396.492188 866.674805,393.774089 872.094727,388.337891 C877.514648,382.901693 880.224609,376.342448 880.224609,368.660156 C880.224609,360.977865 877.514648,354.41862 872.094727,348.982422 C866.674805,343.546224 860.123698,340.828125 852.441406,340.828125 C845.963542,340.828125 840.283203,343.350911 835.400391,348.396484 L835.400391,348.396484 L835.400391,317.048828 L825.292969,317.048828 L825.292969,395.173828 L835.400391,395.173828 L835.400391,388.923828 C840.283203,393.969401 845.963542,396.492188 852.441406,396.492188 Z M852.441406,386.042969 C847.623698,386.042969 843.505859,384.35026 840.087891,380.964844 C837.58138,378.458333 836.01888,375.67513 835.400391,372.615234 L835.400391,372.615234 L835.400391,364.753906 C836.01888,361.661458 837.58138,358.861979 840.087891,356.355469 C843.505859,352.9375 847.623698,351.228516 852.441406,351.228516 C857.259115,351.228516 861.368815,352.9375 864.770508,356.355469 C868.172201,359.773438 869.873047,363.875 869.873047,368.660156 C869.873047,373.477865 868.172201,377.579427 864.770508,380.964844 C861.368815,384.35026 857.259115,386.042969 852.441406,386.042969 Z M903.759766,395.173828 L903.759766,369.34375 C903.889974,364.851562 905.598958,360.977865 908.886719,357.722656 C911.067708,355.541667 913.997396,354.353516 917.675781,354.158203 L917.675781,354.158203 L917.675781,343.660156 C912.174479,343.920573 907.535807,346.60612 903.759766,351.716797 L903.759766,351.716797 L903.759766,344.929688 L893.652344,344.929688 L893.652344,395.173828 L903.759766,395.173828 Z M954.052734,396.492188 C960.498047,396.492188 966.162109,393.969401 971.044922,388.923828 L971.044922,388.923828 L971.044922,395.222656 L981.201172,395.222656 L981.201172,344.929688 L971.044922,344.929688 L971.044922,348.445312 C966.162109,343.432292 960.498047,340.925781 954.052734,340.925781 C946.370443,340.925781 939.819336,343.635742 934.399414,349.055664 C928.979492,354.475586 926.269531,361.026693 926.269531,368.708984 C926.269531,376.391276 928.979492,382.942383 934.399414,388.362305 C939.819336,393.782227 946.370443,396.492188 954.052734,396.492188 Z M954.052734,386.091797 C949.235026,386.091797 945.125326,384.390951 941.723633,380.989258 C938.32194,377.587565 936.621094,373.494141 936.621094,368.708984 C936.621094,363.891276 938.32194,359.789714 941.723633,356.404297 C945.125326,353.01888 949.235026,351.326172 954.052734,351.326172 C958.837891,351.326172 962.939453,353.01888 966.357422,356.404297 C968.896484,358.975911 970.458984,361.840495 971.044922,364.998047 L971.044922,364.998047 L971.044922,372.419922 C970.458984,375.577474 968.896484,378.442057 966.357422,381.013672 C962.939453,384.399089 958.837891,386.091797 954.052734,386.091797 Z M1006.00586,395.173828 L1006.00586,369.34375 C1006.13607,364.851562 1007.84505,360.977865 1011.13281,357.722656 C1013.3138,355.541667 1016.24349,354.353516 1019.92188,354.158203 L1019.92188,354.158203 L1019.92188,343.660156 C1014.42057,343.920573 1009.7819,346.60612 1006.00586,351.716797 L1006.00586,351.716797 L1006.00586,344.929688 L995.898438,344.929688 L995.898438,395.173828 L1006.00586,395.173828 Z M1047.65625,412.068359 L1079.83398,344.929688 L1068.50586,344.929688 L1055.76172,372.419922 L1043.01758,344.929688 L1031.64062,344.929688 L1050.3418,383.992188 L1036.96289,412.068359 L1047.65625,412.068359 Z M634.912109,503.003906 C641.650391,503.003906 647.395833,500.611328 652.148438,495.826172 C655.078125,492.896484 656.901042,490.24349 657.617188,487.867188 C661.588542,486.695312 664.453125,484.563151 666.210938,481.470703 C667.35026,479.517578 667.919922,477.450521 667.919922,475.269531 C667.919922,474.16276 667.757161,473.023438 667.431641,471.851562 C666.48763,468.466146 664.501953,465.894531 661.474609,464.136719 L661.474609,464.136719 L656.494141,472.779297 C657.991536,474.016276 658.740234,475.155599 658.740234,476.197266 C658.740234,476.522786 658.67513,476.832031 658.544922,477.125 C658.024089,478.264323 657.145182,478.833984 655.908203,478.833984 C655.712891,478.833984 655.501302,478.817708 655.273438,478.785156 C653.678385,478.589844 651.961263,477.377279 650.12207,475.147461 C648.282878,472.917643 646.647135,471.395833 645.214844,470.582031 C643.522135,469.605469 641.748047,469.117188 639.892578,469.117188 C638.883464,469.117188 637.874349,469.263672 636.865234,469.556641 C633.968099,470.337891 631.754557,472.046875 630.224609,474.683594 C629.248047,476.408854 628.759766,478.199219 628.759766,480.054688 C628.759766,481.03125 628.889974,482.024089 629.150391,483.033203 C629.508464,484.302734 630.029297,485.442057 630.712891,486.451172 L630.712891,486.451172 L639.013672,480.835938 C638.883464,480.575521 638.818359,480.33138 638.818359,480.103516 C638.818359,479.973307 638.850911,479.843099 638.916016,479.712891 C639.046224,479.38737 639.274089,479.208333 639.599609,479.175781 L639.599609,479.175781 L639.648438,479.175781 C639.941406,479.175781 640.315755,479.322266 640.771484,479.615234 C641.259766,479.940755 641.927083,480.494141 642.773438,481.275391 C645.084635,483.684245 646.695964,485.263021 647.607422,486.011719 C643.082682,490.634115 638.850911,492.945312 634.912109,492.945312 C630.940755,492.945312 627.555339,491.545573 624.755859,488.746094 C621.95638,485.946615 620.556641,482.561198 620.556641,478.589844 C620.556641,474.61849 621.964518,471.094727 624.780273,468.018555 C627.596029,464.942383 631.884766,462.834635 637.646484,461.695312 L637.646484,461.695312 L643.603516,461.646484 L643.603516,451.929688 C639.241536,451.897135 636.352539,451.604167 634.936523,451.050781 C633.520508,450.497396 631.974284,449.325521 630.297852,447.535156 C628.621419,445.744792 627.783203,443.69401 627.783203,441.382812 C627.783203,439.104167 628.580729,437.175456 630.175781,435.59668 C631.770833,434.017904 633.691406,433.228516 635.9375,433.228516 C638.216146,433.228516 640.152995,434.009766 641.748047,435.572266 C642.659505,436.483724 643.66862,438.436849 644.775391,441.431641 L644.775391,441.431641 L653.955078,437.818359 C652.587891,433.554036 650.895182,430.445312 648.876953,428.492188 C645.296224,424.94401 640.983073,423.169922 635.9375,423.169922 C630.891927,423.169922 626.586914,424.960286 623.022461,428.541016 C619.458008,432.121745 617.675781,436.402344 617.675781,441.382812 C617.675781,446.428385 620.198568,451.490234 625.244141,456.568359 C622.900391,456.861328 620.328776,458.375 617.529297,461.109375 C612.874349,466.089844 610.546875,471.916667 610.546875,478.589844 C610.546875,485.328125 612.931315,491.081706 617.700195,495.850586 C622.469076,500.619466 628.20638,503.003906 634.912109,503.003906 Z M362.011719,599.222656 L362.011719,558.988281 L371.044922,558.988281 L371.044922,548.880859 L362.011719,548.880859 L362.011719,540.238281 C362.076823,538.740885 362.646484,537.455078 363.720703,536.380859 C364.990234,535.241536 366.308594,534.671875 367.675781,534.671875 C368.424479,534.671875 370.23112,535.274089 373.095703,536.478516 L373.095703,536.478516 L376.464844,526.908203 C372.363281,525.508464 369.303385,524.808594 367.285156,524.808594 C363.248698,524.808594 359.700521,526.240885 356.640625,529.105469 C353.678385,532.10026 352.083333,535.68099 351.855469,539.847656 L351.855469,539.847656 L351.855469,548.880859 L347.363281,548.880859 L347.363281,558.988281 L351.855469,558.988281 L351.855469,599.222656 L362.011719,599.222656 Z M390.966797,599.173828 L390.966797,573.34375 C391.097005,568.851562 392.80599,564.977865 396.09375,561.722656 C398.27474,559.541667 401.204427,558.353516 404.882812,558.158203 L404.882812,558.158203 L404.882812,547.660156 C399.38151,547.920573 394.742839,550.60612 390.966797,555.716797 L390.966797,555.716797 L390.966797,548.929688 L380.859375,548.929688 L380.859375,599.173828 L390.966797,599.173828 Z M438.574219,600.492188 C446.25651,600.492188 452.807617,597.774089 458.227539,592.337891 C463.647461,586.901693 466.357422,580.342448 466.357422,572.660156 C466.357422,564.977865 463.647461,558.41862 458.227539,552.982422 C452.807617,547.546224 446.25651,544.828125 438.574219,544.828125 C430.924479,544.828125 424.38151,547.546224 418.945312,552.982422 C413.509115,558.41862 410.791016,564.977865 410.791016,572.660156 C410.791016,580.342448 413.509115,586.901693 418.945312,592.337891 C424.38151,597.774089 430.924479,600.492188 438.574219,600.492188 Z M438.574219,590.042969 C433.75651,590.042969 429.64681,588.35026 426.245117,584.964844 C422.843424,581.579427 421.142578,577.477865 421.142578,572.660156 C421.142578,567.875 422.843424,563.773438 426.245117,560.355469 C429.64681,556.9375 433.75651,555.228516 438.574219,555.228516 C443.391927,555.228516 447.501628,556.9375 450.90332,560.355469 C454.305013,563.773438 456.005859,567.875 456.005859,572.660156 C456.005859,577.477865 454.305013,581.579427 450.90332,584.964844 C447.501628,588.35026 443.391927,590.042969 438.574219,590.042969 Z M488.232422,599.173828 L488.232422,562.40625 C488.590495,561.592448 489.355469,560.583333 490.527344,559.378906 C492.643229,557.360677 495.14974,556.351562 498.046875,556.351562 C500.976562,556.351562 503.499349,557.385091 505.615234,559.452148 C507.73112,561.519206 508.789062,564.001302 508.789062,566.898438 L508.789062,566.898438 L508.789062,599.173828 L518.896484,599.173828 L518.896484,566.507812 C518.798828,560.68099 517.14681,555.838867 513.94043,551.981445 C510.734049,548.124023 506.41276,546.195312 500.976562,546.195312 C494.596354,546.195312 490.348307,549.059896 488.232422,554.789062 L488.232422,554.789062 L488.232422,548.929688 L478.076172,548.929688 L478.076172,599.173828 L488.232422,599.173828 Z M549.902344,599.173828 L549.902344,559.037109 L558.935547,559.037109 L558.935547,548.929688 L549.902344,548.929688 L549.902344,530.082031 L539.794922,530.082031 L539.794922,548.929688 L530.761719,548.929688 L530.761719,559.037109 L539.794922,559.037109 L539.794922,599.173828 L549.902344,599.173828 Z M600.341797,574.515625 L600.341797,564.408203 L567.724609,564.408203 L567.724609,574.515625 L600.341797,574.515625 Z M638.671875,600.492188 C646.354167,600.492188 652.913411,597.774089 658.349609,592.337891 C659.45638,591.23112 661.246745,588.96875 663.720703,585.550781 L663.720703,585.550781 L653.613281,581.9375 C652.311198,583.5 651.448568,584.509115 651.025391,584.964844 C647.607422,588.35026 643.489583,590.042969 638.671875,590.042969 C634.21224,590.042969 631.136068,589.294271 629.443359,587.796875 L629.443359,587.796875 L656.054688,561.185547 L661.132812,556.058594 C659.602865,554.333333 658.67513,553.307943 658.349609,552.982422 C657.568359,552.201172 656.770833,551.46875 655.957031,550.785156 C651.009115,546.813802 645.247396,544.828125 638.671875,544.828125 C631.022135,544.828125 624.479167,547.546224 619.042969,552.982422 C613.606771,558.41862 610.888672,564.977865 610.888672,572.660156 C610.888672,580.342448 613.606771,586.901693 619.042969,592.337891 C624.479167,597.774089 631.022135,600.492188 638.671875,600.492188 Z M622.607422,580.326172 C621.728516,579.154297 621.289062,576.598958 621.289062,572.660156 C621.289062,567.842448 622.989909,563.732747 626.391602,560.331055 C629.793294,556.929362 633.886719,555.228516 638.671875,555.228516 C642.643229,555.228516 645.198568,555.667969 646.337891,556.546875 L646.337891,556.546875 L622.607422,580.326172 Z M685.595703,599.173828 L685.595703,562.40625 C685.953776,561.592448 686.71875,560.583333 687.890625,559.378906 C690.00651,557.360677 692.513021,556.351562 695.410156,556.351562 C698.339844,556.351562 700.86263,557.385091 702.978516,559.452148 C705.094401,561.519206 706.152344,564.001302 706.152344,566.898438 L706.152344,566.898438 L706.152344,599.173828 L716.259766,599.173828 L716.259766,566.507812 C716.162109,560.68099 714.510091,555.838867 711.303711,551.981445 C708.097331,548.124023 703.776042,546.195312 698.339844,546.195312 C691.959635,546.195312 687.711589,549.059896 685.595703,554.789062 L685.595703,554.789062 L685.595703,548.929688 L675.439453,548.929688 L675.439453,599.173828 L685.595703,599.173828 Z M757.617188,600.492188 C764.095052,600.492188 769.775391,597.969401 774.658203,592.923828 L774.658203,592.923828 L774.658203,599.173828 L784.814453,599.173828 L784.814453,521.048828 L774.658203,521.048828 L774.658203,552.396484 C769.775391,547.350911 764.095052,544.828125 757.617188,544.828125 C749.934896,544.828125 743.383789,547.546224 737.963867,552.982422 C732.543945,558.41862 729.833984,564.977865 729.833984,572.660156 C729.833984,580.342448 732.543945,586.901693 737.963867,592.337891 C743.383789,597.774089 749.934896,600.492188 757.617188,600.492188 Z M757.617188,590.042969 C752.799479,590.042969 748.689779,588.35026 745.288086,584.964844 C741.886393,581.579427 740.185547,577.477865 740.185547,572.660156 C740.185547,567.875 741.886393,563.773438 745.288086,560.355469 C748.689779,556.9375 752.799479,555.228516 757.617188,555.228516 C762.434896,555.228516 766.536458,556.9375 769.921875,560.355469 C772.49349,562.927083 774.072266,565.791667 774.658203,568.949219 L774.658203,568.949219 L774.658203,576.419922 C774.072266,579.544922 772.49349,582.393229 769.921875,584.964844 C766.536458,588.35026 762.434896,590.042969 757.617188,590.042969 Z M844.189453,599.173828 L844.189453,574.662109 L844.628906,574.125 L858.300781,599.173828 L870.361328,599.173828 L851.416016,565.726562 L865.039062,548.929688 L852.001953,548.929688 L844.189453,558.5 L844.189453,530.082031 L834.033203,530.082031 L834.033203,599.173828 L844.189453,599.173828 Z M885.986328,542.435547 C887.939453,542.435547 889.615885,541.751953 891.015625,540.384766 C892.415365,539.017578 893.115234,537.341146 893.115234,535.355469 C893.115234,533.369792 892.415365,531.693359 891.015625,530.326172 C889.615885,528.958984 887.939453,528.275391 885.986328,528.275391 C884.065755,528.275391 882.405599,528.958984 881.005859,530.326172 C879.60612,531.693359 878.90625,533.369792 878.90625,535.355469 C878.90625,537.341146 879.60612,539.017578 881.005859,540.384766 C882.405599,541.751953 884.065755,542.435547 885.986328,542.435547 Z M891.064453,599.173828 L891.064453,548.929688 L880.957031,548.929688 L880.957031,599.173828 L891.064453,599.173828 Z M922.753906,599.173828 L922.753906,559.037109 L931.787109,559.037109 L931.787109,548.929688 L922.753906,548.929688 L922.753906,530.082031 L912.646484,530.082031 L912.646484,548.929688 L903.613281,548.929688 L903.613281,559.037109 L912.646484,559.037109 L912.646484,599.173828 L922.753906,599.173828 Z"/>
  </g>
</svg>
